# xmcd
#
# Track frame offsets:
#	150
#	13367
#	25117
#	39965
#	56009
#	60953
#	68567
#	81689
#	93748
#	103825
#
# Disc length: 1551 seconds
#
# Revision: 0
# Processed by: cddbd v1.5.2PL0 Copyright (c) Steve Scherf et al.
# Submitted via: dBpowerAMP V4.0
#
DISCID=82060d0a
DTITLE=Teddy Williams - The George Mitchell Collection
DYEAR=2006
DGENRE=Blues
TTITLE0=Shaggy Hound
TTITLE1=The Swing Blues
TTITLE2=Catfish Blues #1
TTITLE3=Down Home Blues
TTITLE4=Going Away Blues
TTITLE5=Catfish Blues #2
TTITLE6=Black Mattie
TTITLE7=Hard Time Blues
TTITLE8=Sun Don't Shine
TTITLE9=You See Me Laughing
EXTD=
EXTT0=
EXTT1=
EXTT2=
EXTT3=
EXTT4=
EXTT5=
EXTT6=
EXTT7=
EXTT8=
EXTT9=
PLAYORDER=
